<svg width="17" height="23" viewBox="0 0 17 23" fill="none" xmlns="http://www.w3.org/2000/svg">
<g clip-path="url(#clip0_927_1243)">
<path d="M15.4671 22.9718H1.53293C1.12652 22.9713 0.736884 22.8096 0.449505 22.5223C0.162127 22.2349 0.000470388 21.8453 0 21.4388V1.53293C0.000470388 1.12652 0.162127 0.736884 0.449505 0.449505C0.736884 0.162126 1.12652 0.000470388 1.53293 0H15.4671C15.8735 0.000470388 16.2631 0.162126 16.5505 0.449505C16.8379 0.736884 16.9995 1.12652 17 1.53293V21.4388C16.9995 21.8453 16.8379 22.2349 16.5505 22.5223C16.2631 22.8096 15.8735 22.9713 15.4671 22.9718ZM1.53293 0.577627C1.27968 0.577979 1.0369 0.678741 0.857819 0.857819C0.678741 1.0369 0.577979 1.27968 0.577627 1.53293V21.4388C0.577862 21.6921 0.678586 21.935 0.857689 22.1141C1.03679 22.2932 1.27964 22.3939 1.53293 22.3941H15.4671C15.7204 22.3939 15.9632 22.2932 16.1423 22.1141C16.3214 21.935 16.4221 21.6921 16.4224 21.4388V1.53293C16.4221 1.27964 16.3214 1.03679 16.1423 0.857689C15.9632 0.678586 15.7204 0.577862 15.4671 0.577627H1.53293Z" fill="white"/>
<path d="M15.4671 22.9718H1.53293C1.12652 22.9713 0.736884 22.8096 0.449505 22.5223C0.162127 22.2349 0.000470388 21.8453 0 21.4388V1.53293C0.000470388 1.12652 0.162127 0.736884 0.449505 0.449505C0.736884 0.162126 1.12652 0.000470388 1.53293 0H15.4671C15.8735 0.000470388 16.2631 0.162126 16.5505 0.449505C16.8379 0.736884 16.9995 1.12652 17 1.53293V21.4388C16.9995 21.8453 16.8379 22.2349 16.5505 22.5223C16.2631 22.8096 15.8735 22.9713 15.4671 22.9718ZM1.53293 0.577627C1.27968 0.577979 1.0369 0.678741 0.857819 0.857819C0.678741 1.0369 0.577979 1.27968 0.577627 1.53293V21.4388C0.577862 21.6921 0.678586 21.935 0.857689 22.1141C1.03679 22.2932 1.27964 22.3939 1.53293 22.3941H15.4671C15.7204 22.3939 15.9632 22.2932 16.1423 22.1141C16.3214 21.935 16.4221 21.6921 16.4224 21.4388V1.53293C16.4221 1.27964 16.3214 1.03679 16.1423 0.857689C15.9632 0.678586 15.7204 0.577862 15.4671 0.577627H1.53293Z" stroke="white"/>
<path d="M3.52348 4.51904C3.45749 4.51904 3.3942 4.54526 3.34754 4.59192C3.30087 4.63859 3.27466 4.70187 3.27466 4.76787C3.27466 4.83386 3.30087 4.89715 3.34754 4.94381C3.3942 4.99048 3.45749 5.01669 3.52348 5.01669H13.4764C13.5424 5.01669 13.6057 4.99048 13.6524 4.94381C13.699 4.89715 13.7253 4.83386 13.7253 4.76787C13.7253 4.70187 13.699 4.63859 13.6524 4.59192C13.6057 4.54526 13.5424 4.51904 13.4764 4.51904H3.52348Z" fill="white"/>
<path d="M13.4767 5.10507H3.52372C3.47938 5.10507 3.43547 5.09633 3.3945 5.07936C3.35353 5.06239 3.3163 5.03752 3.28494 5.00616C3.25359 4.9748 3.22871 4.93758 3.21174 4.89661C3.19477 4.85563 3.18604 4.81172 3.18604 4.76738C3.18604 4.72303 3.19477 4.67912 3.21174 4.63815C3.22871 4.59718 3.25359 4.55995 3.28494 4.52859C3.3163 4.49724 3.35353 4.47236 3.3945 4.45539C3.43547 4.43842 3.47938 4.42969 3.52372 4.42969H13.4767C13.5662 4.42969 13.6521 4.46527 13.7155 4.52859C13.7788 4.59192 13.8144 4.67782 13.8144 4.76738C13.8144 4.85694 13.7788 4.94283 13.7155 5.00616C13.6521 5.06949 13.5662 5.10507 13.4767 5.10507ZM3.52372 4.60742C3.4813 4.60742 3.44062 4.62427 3.41062 4.65427C3.38062 4.68427 3.36377 4.72495 3.36377 4.76738C3.36377 4.8098 3.38062 4.85049 3.41062 4.88048C3.44062 4.91048 3.4813 4.92734 3.52372 4.92734H13.4767C13.5191 4.92734 13.5598 4.91048 13.5898 4.88048C13.6198 4.85049 13.6366 4.8098 13.6366 4.76738C13.6366 4.72495 13.6198 4.68427 13.5898 4.65427C13.5598 4.62427 13.5191 4.60742 13.4767 4.60742H3.52372Z" fill="white"/>
<path d="M3.52348 8.9978C3.45749 8.9978 3.3942 9.02402 3.34754 9.07068C3.30087 9.11734 3.27466 9.18063 3.27466 9.24663C3.27466 9.31262 3.30087 9.37591 3.34754 9.42257C3.3942 9.46924 3.45749 9.49545 3.52348 9.49545H13.4764C13.5424 9.49545 13.6057 9.46924 13.6524 9.42257C13.699 9.37591 13.7253 9.31262 13.7253 9.24663C13.7253 9.18063 13.699 9.11734 13.6524 9.07068C13.6057 9.02402 13.5424 8.9978 13.4764 8.9978H3.52348Z" fill="white"/>
<path d="M13.4767 9.58456H3.52372C3.43416 9.58456 3.34827 9.54898 3.28494 9.48565C3.22161 9.42232 3.18604 9.33643 3.18604 9.24687C3.18604 9.15731 3.22161 9.07142 3.28494 9.00809C3.34827 8.94476 3.43416 8.90918 3.52372 8.90918H13.4767C13.5662 8.90918 13.6521 8.94476 13.7155 9.00809C13.7788 9.07142 13.8144 9.15731 13.8144 9.24687C13.8144 9.33643 13.7788 9.42232 13.7155 9.48565C13.6521 9.54898 13.5662 9.58456 13.4767 9.58456V9.58456ZM3.52372 9.08691C3.4813 9.08691 3.44062 9.10376 3.41062 9.13376C3.38062 9.16376 3.36377 9.20445 3.36377 9.24687C3.36377 9.28929 3.38062 9.32998 3.41062 9.35998C3.44062 9.38998 3.4813 9.40683 3.52372 9.40683H13.4767C13.5191 9.40683 13.5598 9.38998 13.5898 9.35998C13.6198 9.32998 13.6366 9.28929 13.6366 9.24687C13.6366 9.20445 13.6198 9.16376 13.5898 9.13376C13.5598 9.10376 13.5191 9.08691 13.4767 9.08691H3.52372Z" fill="white"/>
<path d="M3.52348 13.4766C3.45749 13.4766 3.3942 13.5028 3.34754 13.5494C3.30087 13.5961 3.27466 13.6594 3.27466 13.7254C3.27466 13.7914 3.30087 13.8547 3.34754 13.9013C3.3942 13.948 3.45749 13.9742 3.52348 13.9742H13.4764C13.5424 13.9742 13.6057 13.948 13.6524 13.9013C13.699 13.8547 13.7253 13.7914 13.7253 13.7254C13.7253 13.6594 13.699 13.5961 13.6524 13.5494C13.6057 13.5028 13.5424 13.4766 13.4764 13.4766H3.52348Z" fill="white"/>
<path d="M13.4762 14.0406H3.52324C3.43957 14.0406 3.35933 14.0074 3.30016 13.9482C3.241 13.8891 3.20776 13.8088 3.20776 13.7251C3.20776 13.6415 3.241 13.5612 3.30016 13.5021C3.35933 13.4429 3.43957 13.4097 3.52324 13.4097H13.4762C13.5599 13.4097 13.6401 13.4429 13.6993 13.5021C13.7584 13.5612 13.7917 13.6415 13.7917 13.7251C13.7917 13.8088 13.7584 13.8891 13.6993 13.9482C13.6401 14.0074 13.5599 14.0406 13.4762 14.0406ZM3.52324 13.543C3.47492 13.543 3.42858 13.5622 3.39442 13.5963C3.36026 13.6305 3.34106 13.6768 3.34106 13.7251C3.34106 13.7735 3.36026 13.8198 3.39442 13.854C3.42858 13.8881 3.47492 13.9073 3.52324 13.9073H13.4762C13.5245 13.9073 13.5708 13.8881 13.605 13.854C13.6392 13.8198 13.6584 13.7735 13.6584 13.7251C13.6584 13.6768 13.6392 13.6305 13.605 13.5963C13.5708 13.5622 13.5245 13.543 13.4762 13.543H3.52324Z" fill="white"/>
<path d="M8.25113 17.9551H3.52348C3.38606 17.9551 3.27466 18.0665 3.27466 18.2039C3.27466 18.3413 3.38606 18.4527 3.52348 18.4527H8.25113C8.38856 18.4527 8.49996 18.3413 8.49996 18.2039C8.49996 18.0665 8.38856 17.9551 8.25113 17.9551Z" fill="white"/>
<path d="M8.25089 18.5191H3.52324C3.43957 18.5191 3.35933 18.4859 3.30016 18.4267C3.241 18.3676 3.20776 18.2873 3.20776 18.2037C3.20776 18.12 3.241 18.0397 3.30016 17.9806C3.35933 17.9214 3.43957 17.8882 3.52324 17.8882H8.25089C8.33456 17.8882 8.4148 17.9214 8.47396 17.9806C8.53313 18.0397 8.56636 18.12 8.56636 18.2037C8.56636 18.2873 8.53313 18.3676 8.47396 18.4267C8.4148 18.4859 8.33456 18.5191 8.25089 18.5191ZM3.52324 18.0215C3.47492 18.0215 3.42858 18.0407 3.39442 18.0748C3.36026 18.109 3.34106 18.1553 3.34106 18.2037C3.34106 18.252 3.36026 18.2983 3.39442 18.3325C3.42858 18.3666 3.47492 18.3858 3.52324 18.3858H8.25089C8.29921 18.3858 8.34554 18.3666 8.37971 18.3325C8.41387 18.2983 8.43306 18.252 8.43306 18.2037C8.43306 18.1553 8.41387 18.109 8.37971 18.0748C8.34554 18.0407 8.29921 18.0215 8.25089 18.0215H3.52324Z" fill="white"/>
</g>
<rect x="0.5" y="0.5" width="16" height="21.9718" rx="0.5" stroke="white"/>
<defs>
<clipPath id="clip0_927_1243">
<rect width="17" height="22.9718" rx="1" fill="white"/>
</clipPath>
</defs>
</svg>
