<svg width="26" height="23" viewBox="0 0 26 23" fill="none" xmlns="http://www.w3.org/2000/svg">
<path d="M17.88 6.16699H8.11883C7.74121 6.16699 7.43481 6.4732 7.43481 6.851C7.43481 7.22881 7.74103 7.53501 8.11883 7.53501H17.88C18.2576 7.53501 18.564 7.2288 18.564 6.851C18.564 6.47301 18.2576 6.16699 17.88 6.16699Z" fill="white"/>
<path d="M17.88 9.85864H8.11883C7.74121 9.85864 7.43481 10.1649 7.43481 10.5427C7.43481 10.9205 7.74103 11.2267 8.11883 11.2267H17.88C18.2576 11.2267 18.564 10.9205 18.564 10.5427C18.564 10.1647 18.2576 9.85864 17.88 9.85864Z" fill="white"/>
<path d="M17.88 13.5505H8.11883C7.74121 13.5505 7.43481 13.8567 7.43481 14.2345C7.43481 14.6124 7.74103 14.9186 8.11883 14.9186H17.88C18.2576 14.9186 18.564 14.6123 18.564 14.2345C18.564 13.8566 18.2576 13.5505 17.88 13.5505Z" fill="white"/>
<path d="M21.1941 3.31848e-05H9.25033C6.60054 3.31848e-05 4.44465 2.15592 4.44465 4.8057V17.0291H0.684011C0.306207 17.0291 0 17.3351 0 17.7129V18.1901C0 20.8389 2.15496 22.9939 4.80396 22.9939L16.7522 22.9945C19.4006 22.9945 21.5551 20.8386 21.5551 18.1888L21.555 9.76426H25.316C25.6936 9.76426 26 9.45805 26 9.08025L25.9998 4.80548C25.9998 2.15589 23.8439 0 21.1941 0L21.1941 3.31848e-05ZM4.80396 21.6263C2.97869 21.6263 1.48126 20.1957 1.37394 18.397H11.9513C12.0049 19.6602 12.5488 20.7988 13.3972 21.6267L4.80396 21.6263ZM24.6318 8.39671H21.5546V6.37083C21.5546 5.78339 22.0324 5.30576 22.6196 5.30576C22.9972 5.30576 23.3036 4.99955 23.3036 4.62175C23.3036 4.24395 22.9974 3.93774 22.6196 3.93774C21.2781 3.93774 20.1867 5.02915 20.1867 6.37063L20.1869 18.1888C20.1869 20.0765 18.6587 21.6135 16.7756 21.6263C16.7674 21.6261 16.7588 21.6259 16.7504 21.6259C14.8557 21.6259 13.3143 20.0845 13.3143 18.19V17.7127C13.3143 17.3349 13.0081 17.0287 12.6303 17.0287L5.81264 17.0291V4.80572C5.81264 2.91023 7.3548 1.36808 9.25029 1.36808H21.1941C23.0896 1.36808 24.6317 2.91023 24.6317 4.80572L24.6318 8.39671Z" fill="white"/>
</svg>
