<svg width="21" height="23" viewBox="0 0 21 23" fill="none" xmlns="http://www.w3.org/2000/svg">
<path d="M5.97021 14.8504H18.5006C19.8819 14.8504 21 13.7323 21 12.351V7.08877C21 6.79283 20.7369 6.5297 20.4409 6.5297C20.145 6.5297 19.8819 6.79283 19.8819 7.08877V12.351C19.8819 13.1073 19.2569 13.7323 18.5006 13.7323H5.97021C5.21384 13.7323 4.58891 13.1073 4.58891 12.351V2.02412V1.92548V1.85964C4.58891 1.82683 4.58891 1.82683 4.5561 1.7938C4.5561 1.76099 4.5233 1.76099 4.5233 1.72795C4.5233 1.72795 4.5233 1.69515 4.49049 1.69515L4.35927 1.56393C4.32647 1.53112 4.29343 1.53112 4.26062 1.49809L0.807319 0.0509518C0.511379 -0.0805006 0.182387 0.0509514 0.0509518 0.346891C-0.0805006 0.642831 0.0509514 0.971823 0.346891 1.10326L3.43843 2.41866V16.2645C3.43843 17.5799 4.4579 18.6653 5.74054 18.764C5.4774 19.1586 5.34595 19.619 5.34595 20.1453C5.34595 21.5266 6.46409 22.6447 7.84538 22.6447C9.22668 22.6447 10.3448 21.5266 10.3448 20.1453C10.3448 19.652 10.1803 19.1916 9.95023 18.7968H15.8701C15.607 19.1914 15.4755 19.6518 15.4755 20.1453C15.4755 21.5266 16.5936 22.6447 17.9749 22.6447C19.3562 22.6447 20.4744 21.5266 20.4744 20.1453C20.4744 18.764 19.3562 17.6458 17.9749 17.6458H6.03656C5.2802 17.6458 4.65526 17.0209 4.65526 16.2645L4.65481 14.4226C4.98378 14.6858 5.47701 14.8502 5.97021 14.8502L5.97021 14.8504ZM17.9086 18.7641C18.6649 18.7641 19.257 19.356 19.257 20.1126C19.257 20.869 18.6652 21.4611 17.9086 21.4611C17.1522 21.4611 16.5601 20.8692 16.5601 20.1126C16.5601 19.3888 17.1522 18.7641 17.9086 18.7641ZM7.84483 18.7641C8.6012 18.7641 9.1933 19.356 9.1933 20.1126C9.1933 20.869 8.60143 21.4611 7.84483 21.4611C7.08846 21.4611 6.49636 20.8692 6.49636 20.1126C6.49636 19.3888 7.08846 18.7641 7.84483 18.7641ZM9.22613 8.27286C8.9958 8.04253 8.9958 7.64792 9.22613 7.41783C9.45646 7.1875 9.85106 7.1875 10.0812 7.41783L11.5611 8.89773V2.353C11.5611 2.02403 11.8242 1.76114 12.1529 1.76114C12.4819 1.76114 12.7448 2.02427 12.7448 2.353V8.89773L14.2247 7.41783C14.455 7.1875 14.8496 7.1875 15.0797 7.41783C15.3101 7.64815 15.3101 8.04276 15.0797 8.27286L12.5803 10.7723C12.4817 10.8709 12.3172 10.9368 12.1527 10.9368C11.9882 10.9368 11.8567 10.8709 11.7251 10.7723L9.22613 8.27286Z" fill="white"/>
</svg>
