<svg width="314" height="248" viewBox="0 0 314 248" fill="none" xmlns="http://www.w3.org/2000/svg">
<path d="M149.179 105.226C155.923 105.252 162.675 105.226 169.38 104.676C168.93 105.155 168.475 105.628 168.013 106.095C164.717 107.466 163.045 111.588 159.353 112.112C155.351 111.029 152.037 108.158 149.179 105.226Z" fill="white"/>
<path d="M140.003 112.52C145.854 113.017 151.5 114.918 156.46 118.06C159.645 120.003 162.585 122.599 166.372 123.27C168.448 125.036 170.412 126.932 172.432 128.763C171.022 130.667 169.475 132.467 168.254 134.509C167.313 135.708 166.462 136.98 165.62 138.253C164.257 140.152 162.766 141.953 161.416 143.84C156.275 143.9 151.138 143.918 146.003 143.892C145.109 143.965 144.396 143.423 143.785 142.852C142.926 139.976 141.959 137.131 141.009 134.286C140.248 131.866 139.487 129.446 138.52 127.103C137.411 124.366 136.006 121.765 134.746 119.1C136.488 116.903 138.241 114.709 140.003 112.52Z" fill="white"/>
<path d="M121.697 192.227C122.239 178.259 122.501 164.29 122.742 150.308C123.068 153.042 122.952 155.797 122.927 158.543C124.306 158.651 125.69 158.78 127.078 158.805C128.221 160.944 129.763 162.844 131.622 164.402C134.084 166.551 135.632 169.495 136.779 172.508C136.848 174.145 137.007 175.783 136.964 177.429C136.921 179.075 136.87 180.717 136.964 182.359C136.246 187.886 137.235 193.452 136.964 199.001C136.689 201.662 137.656 204.589 136.349 207.056C131.132 204.211 125.26 201.761 121.555 196.917C121.663 195.348 121.697 193.788 121.697 192.227Z" fill="white"/>
<path d="M66.3549 187.449C66.2732 186.409 67.567 186.813 68.1988 186.805C75.4325 187.767 82.7607 188.24 89.9428 189.418C88.8941 197.374 88.3654 205.398 87.2393 213.345C79.5028 212.486 71.792 211.523 64.0554 210.766C64.511 202.978 65.7575 195.237 66.3549 187.449Z" fill="white"/>
<path d="M217.382 188.669C222.402 189.114 227.416 189.687 232.425 190.389C227.62 196.183 222.776 201.972 217.713 207.529C216.995 201.28 217.554 194.949 217.382 188.669Z" fill="white"/>
<path d="M245.057 189.404C251.693 187.96 258.613 192.877 259.825 199.466C261.566 206.39 256.588 214.148 249.475 215.188C243.135 216.388 236.671 211.806 235.227 205.617C233.224 198.692 237.973 190.797 245.057 189.404Z" fill="white"/>
<path d="M253.894 33.5555C254.452 33.6114 255.368 33.1988 255.613 33.9595C257.156 37.398 256.778 42.0184 253.756 44.5672C251.929 45.952 249.799 46.883 247.541 47.2836L247.27 45.8996C249.75 44.6575 252.901 43.8881 254.126 41.0944C255.45 38.6788 254.237 36.0355 253.894 33.5555Z" fill="#E1E3E6"/>
<path d="M66.617 91.5845C69.4882 92.9814 72.0971 97.331 69.4366 100.065C66.2388 103.095 61.1499 102.3 57.9693 105.373C55.6741 107.26 55.4936 110.578 56.4477 113.204C56.564 113.401 56.6289 113.625 56.6365 113.854C56.644 114.083 56.594 114.311 56.4909 114.516C56.3879 114.72 56.2351 114.896 56.0466 115.027C55.8581 115.157 55.6399 115.238 55.4119 115.263C53.5551 111.734 53.5079 106.89 56.7013 104.088C59.753 100.649 65.1772 101.689 68.3535 98.5646C69.746 96.1491 66.9953 94.2665 65.7187 92.5472L66.617 91.5845Z" fill="#E1E3E6"/>
<path d="M274.116 164.123C277.357 164.368 279.33 161.381 280.946 159.047L282.235 159.602C281.255 162.941 278.101 165.782 274.55 165.941C272.023 165.941 269.595 164.863 267.6 163.384C266.934 162.989 267.295 162.172 267.278 161.575C269.659 162.138 271.542 164.132 274.116 164.123Z" fill="#E1E3E6"/>
<path d="M154.947 37.677C156.871 36.7016 159.044 36.3307 161.182 36.613C163.32 36.8953 165.322 37.8176 166.926 39.2587C170.068 41.8805 173.232 45.5167 172.944 49.8836C172.944 51.8306 171.835 53.5671 170.601 54.994C171.069 53.6732 171.358 52.2956 171.461 50.8979C168.452 53.5842 164.373 52.5699 160.754 52.5097C157.844 51.9123 155.205 53.8808 154.307 56.5757C153.877 57.5901 153.392 58.5915 152.914 59.5844C151.329 58.8167 149.833 57.8769 148.453 56.782C144.949 54.0588 142.225 50.461 140.553 46.3506C142.109 44.5024 144.58 44.2015 146.639 43.2774C143.919 42.8734 141.585 44.2746 139.689 46.0282C141.232 42.5897 145.483 43.0496 148.595 42.6843C150.963 41.4077 152.725 39.22 154.947 37.677Z" fill="#0C294C"/>
<path d="M160.728 52.5092C164.347 52.5694 168.426 53.5838 171.435 50.8975C171.333 52.2951 171.044 53.6727 170.575 54.9935C169.767 57.091 169.419 59.3174 168.856 61.4794C165.658 60.3962 163.127 63.4952 159.955 62.9923C158.201 62.8762 156.761 61.8318 155.356 60.8905C153.301 61.5309 151.861 63.2373 150.46 64.7588C150.03 64.488 149.601 64.2215 149.205 63.9379C147.486 62.3304 147.086 59.9106 147.005 57.6713C147.482 57.379 147.959 57.0781 148.436 56.7773C149.816 57.8721 151.312 58.8119 152.897 59.5796C153.374 58.5782 153.843 57.5767 154.29 56.5709C154.29 57.9893 153.469 59.8719 154.406 60.9636C154.913 59.5882 154.81 58.0495 155.502 56.7343C156.499 54.6024 158.7 53.4806 160.728 52.5092ZM166.698 55.432C166.183 57.1899 168.848 58.8704 169.737 56.9879C168.284 57.6713 167.296 56.6956 166.698 55.432Z" fill="#FEC2B6"/>
<path d="M185.717 94.833C189.934 96.9434 193.17 100.356 195.869 104.143C195.263 104.689 194.713 105.432 193.828 105.484C190.454 105.913 187.148 104.624 184.118 103.3C183.065 102.699 181.496 102.011 181.539 100.592C182.489 98.3789 184.527 96.9219 185.717 94.833Z" fill="#FEC2B6"/>
<path d="M140.003 112.52C142.582 109.576 144.632 106.116 147.572 103.494C148.016 104.147 148.558 104.727 149.18 105.213C152.038 108.145 155.352 111.016 159.375 112.09C163.067 111.566 164.739 107.444 168.036 106.073C165.328 109.774 161.876 112.894 159.306 116.689C161.662 118.877 164.034 121.039 166.372 123.248C162.586 122.578 159.646 119.982 156.461 118.039C151.498 114.904 145.853 113.011 140.003 112.52Z" fill="#FEC2B6"/>
<path d="M154.281 56.5763C155.179 53.8814 157.818 51.9128 160.728 52.5103C158.704 53.4816 156.499 54.6034 155.493 56.7396C154.801 58.0548 154.904 59.5935 154.397 60.9689C153.46 59.8772 154.289 57.9946 154.281 56.5763Z" fill="#776D7B"/>
<path d="M122.433 56.3868C130.423 54.5472 139.036 54.8738 146.717 57.818C138.082 61.5445 128.992 65.2408 122.484 72.3112C119.642 74.9501 117.108 77.9032 114.932 81.1137C114.129 82.5922 112.547 81.6123 111.408 81.1911C111.546 80.7226 111.692 80.2584 111.838 79.7899C110.475 79.7383 109.457 78.8314 108.558 77.9073C108.301 78.1222 108.038 78.3371 107.776 78.5391L107.372 78.2855C106.847 78.8396 106.293 79.3661 105.713 79.8629C105.61 79.5535 105.511 79.244 105.412 78.9389C105.644 78.8056 106.104 78.5391 106.332 78.4016L106.5 77.2325L104.905 77.1422C104.647 76.5878 104.389 76.0333 104.136 75.4789L104.995 74.9975L104.204 74.5978C104.204 74.2453 104.204 73.9015 104.179 73.5533L102.915 74.7267L102.055 74.3485L103.22 73.9789C102.4 73.0012 101.529 72.0672 100.611 71.1808L99.0897 71.039C98.2 69.6593 96.8977 68.4945 95.1655 68.5203C96.1842 66.0704 97.869 63.8268 100.237 62.5545C103.461 60.788 107.187 60.5172 110.759 60.0659C114.907 59.6748 118.423 57.212 122.433 56.3868Z" fill="#173F7D"/>
<path d="M166.698 55.4326C167.278 56.6963 168.284 57.6719 169.737 56.9885C168.864 58.8711 166.182 57.1905 166.698 55.4326Z" fill="#143C75"/>
<path d="M138.069 83.9884C139.93 79.3249 142.694 75.087 145.539 70.978L146.506 71.2101C145.784 77.1759 146.661 83.8637 150.851 88.4627C153.318 91.2392 156.834 92.7264 160.337 93.7063C165.422 95.1591 170.502 96.715 175.759 97.4199C173.61 99.801 171.598 102.315 169.423 104.675C162.697 105.212 155.945 105.251 149.222 105.225C148.601 104.739 148.059 104.159 147.615 103.506C147.49 102.513 147.108 101.593 146.175 101.121C143.26 98.971 140.673 96.4098 138.494 93.5172C136.302 90.8223 136.638 86.9411 138.069 83.9884Z" fill="#143C75"/>
<path d="M146.716 57.8095L146.996 57.6763C147.077 59.9156 147.477 62.3354 149.196 63.9429C149.085 64.4028 148.977 64.8627 148.87 65.3269C147.881 65.602 146.768 65.8641 146.213 66.8226C145.006 68.7482 143.484 70.5233 142.775 72.7239L141.361 72.3843C141.258 72.9904 141.159 73.5964 141.06 74.2067L138.834 74.3916C139.001 74.6494 139.178 74.903 139.349 75.1609C138.408 75.9475 138.49 77.181 138.451 78.2985L137.57 78.5091C137.14 79.5794 136.594 80.6066 136.134 81.6682C135.296 83.4261 136.375 85.5365 135.249 87.2128C134.205 88.773 136.968 90.5868 135.086 91.9149L136.633 92.6284C136.633 94.627 138.455 95.9852 138.417 98.0139C140.329 98.3104 140.875 101.452 143.072 100.395C143.733 101.311 144.481 102.325 145.754 102.23C145.844 101.951 146.029 101.371 146.123 101.113C147.056 101.586 147.438 102.505 147.563 103.498C144.623 106.107 142.586 109.567 139.994 112.524C138.232 114.716 136.48 116.915 134.738 119.122C133.311 120.742 132.275 122.771 130.5 124.035C129.269 123.646 128.101 123.081 127.031 122.358C123.79 120.166 121.684 116.702 120.726 112.958C119.964 109.972 118.756 107.117 117.141 104.491C115.688 102.445 113.75 100.769 112.551 98.5382C110.531 94.4722 110.909 89.8389 112.121 85.6053L111.141 84.7714C110.587 83.635 110.26 82.4013 110.178 81.1396L109.099 82.3086H108.575C108.719 81.6604 108.723 80.9888 108.585 80.3391C108.447 79.6895 108.171 79.0771 107.776 78.5435C108.038 78.3372 108.3 78.1137 108.558 77.9117C109.456 78.8358 110.475 79.7427 111.837 79.7943C111.691 80.2627 111.545 80.7269 111.408 81.1954C112.547 81.6252 114.128 82.5966 114.932 81.1181C117.108 77.9076 119.641 74.9545 122.484 72.3156C128.991 65.2409 138.069 61.5446 146.716 57.8095Z" fill="#1A4789"/>
<path d="M149.197 63.9512C149.605 64.2348 150.026 64.5013 150.452 64.7721C149.055 66.861 146.476 68.4599 146.485 71.2192L145.517 70.9872C142.672 75.0961 139.908 79.334 138.047 83.9975C136.638 86.9503 136.302 90.8315 138.451 93.5264C140.63 96.419 143.218 98.9801 146.132 101.13C146.038 101.409 145.853 101.968 145.762 102.247C144.473 102.342 143.742 101.327 143.08 100.412C140.884 101.482 140.338 98.3273 138.426 98.0308C138.464 96.0021 136.65 94.6439 136.642 92.6452L135.095 91.9318C136.981 90.6037 134.213 88.7899 135.258 87.2296C136.384 85.5534 135.305 83.443 136.143 81.6851C136.603 80.6235 137.14 79.5962 137.579 78.526L138.46 78.3154C138.49 77.1979 138.417 75.9643 139.358 75.1778C139.186 74.9199 139.01 74.6663 138.843 74.4084L141.069 74.2236C141.168 73.6133 141.267 73.0073 141.37 72.4012L142.784 72.7408C143.484 70.5402 145.006 68.765 146.222 66.8395C146.777 65.881 147.89 65.6188 148.879 65.3438C148.977 64.871 149.085 64.4111 149.197 63.9512Z" fill="#2E5FA1"/>
<path d="M95.1953 68.5204C96.9146 68.4947 98.2298 69.6594 99.1195 71.0391L100.641 71.181C101.559 72.0674 102.43 73.0013 103.25 73.979L102.085 74.3487L102.945 74.7269L104.208 73.5535C104.208 73.9017 104.208 74.2455 104.234 74.5979L105.025 74.9977L104.165 75.4791C104.419 76.0335 104.677 76.588 104.935 77.1424L106.529 77.2327L106.362 78.4018C106.134 78.5393 105.674 78.8058 105.442 78.939C105.541 79.2442 105.64 79.5536 105.743 79.8631C106.323 79.3663 106.876 78.8398 107.402 78.2857L107.806 78.5393C108.201 79.0729 108.477 79.6853 108.615 80.3349C108.753 80.9845 108.75 81.6562 108.605 82.3044H109.13L110.221 81.1439C110.303 82.4057 110.63 83.6394 111.184 84.7758C110.178 84.144 109.121 83.581 108.176 82.8804C105.502 80.9204 103.237 78.4963 100.736 76.343C100.495 76.1281 100.258 75.9089 100.026 75.6854C98.492 73.9661 96.7297 72.4059 95.2555 70.6136C94.5979 70.0119 95.0879 69.2081 95.1953 68.5204Z" fill="#3465A5"/>
<path d="M99.9789 75.6758C100.211 75.8993 100.447 76.1185 100.688 76.3334C99.8886 78.2117 100.628 80.279 100.061 82.2003C99.2009 85.2691 99.0935 88.5271 97.7611 91.467C96.592 93.8782 97.0863 96.5731 97.3055 99.1262C97.5805 101.009 96.2223 102.616 96.2567 104.469C96.3907 107.877 97.2339 111.221 98.7324 114.286C99.0806 116.46 99.5276 119.013 97.9803 120.836C100.559 121.502 101.049 124.055 101.255 126.342C103.056 129.269 102.179 132.828 102.072 136.06C101.977 138.209 103.735 139.876 103.602 142.021C103.559 144.686 103.125 147.518 104.582 149.93C103.529 154.597 105.872 159.162 105.485 163.782C106.486 165.072 105.794 166.662 105.915 168.128C105.992 170.277 107.062 172.357 106.495 174.515C106.031 177.996 106.443 181.705 104.724 184.92C105.897 186.012 105.747 188.544 103.839 188.643C99.4115 177.515 102.081 165.192 99.3213 153.725C96.9788 145.21 99.3814 136.382 98.4616 127.73C97.0003 117.47 92.8741 107.611 92.9859 97.1362C93.2223 89.5543 95.049 81.6372 99.9789 75.6758Z" fill="#0075ED"/>
<path d="M100.061 82.2009C100.628 80.2796 99.8888 78.2123 100.688 76.334C103.19 78.483 105.455 80.9115 108.128 82.8714C108.064 83.2539 107.999 83.6364 107.939 84.019L109.499 84.5218C108.846 84.923 108.193 85.3184 107.539 85.7081C108.601 86.5677 109.125 87.6165 107.905 88.6265C108.526 90.2044 108.719 91.9186 108.464 93.5951L109.8 93.3372C109.18 94.1151 108.667 94.9723 108.274 95.886C109.796 98.4133 109.443 101.431 109.697 104.246C110.531 105.436 111.605 106.498 112.018 107.942C113.161 111.553 115.908 115.056 114.859 119.027L115.637 120.058C114.373 121.288 114.898 122.921 115.637 124.284L115.702 124.443C115.702 124.872 115.671 125.302 115.65 125.702L115.01 126.067C115.57 127.204 116.19 128.31 116.866 129.381C116.265 131.96 117.82 134.539 116.436 137.062C116.944 137.655 117.455 138.248 117.971 138.841C117.64 139.271 117.318 139.701 116.995 140.131C117.588 143.101 118.113 146.402 116.565 149.157C116.995 149.844 117.425 150.532 117.876 151.22C117.361 151.982 116.839 152.741 116.312 153.498C116.462 154.026 116.608 154.555 116.742 155.088C116.54 155.548 116.338 156.008 116.14 156.472C117.881 158.746 118.345 162.558 116.402 164.806C117.262 167.256 116.914 170.148 118.732 172.194L117.769 172.422L118.426 174.141L117.459 174.236C116.935 176.445 117.825 179.136 116.17 180.945C117.657 182.338 117.33 184.448 116.647 186.159C116.74 187.075 116.718 187.999 116.583 188.91C117.52 190.341 118.856 191.45 120.043 192.67C120.472 192.262 120.924 191.858 121.366 191.458C121.448 191.639 121.62 192 121.702 192.181C121.702 193.741 121.667 195.31 121.534 196.87C117.455 196.337 113.32 196.685 109.22 196.655C106.99 194.288 105.174 191.564 103.847 188.596C105.756 188.497 105.906 185.965 104.733 184.874C106.452 181.659 106.022 177.95 106.504 174.468C107.071 172.319 106.001 170.222 105.923 168.081C105.799 166.615 106.491 165.025 105.494 163.736C105.885 159.115 103.538 154.551 104.591 149.883C103.134 147.472 103.568 144.639 103.611 141.974C103.744 139.825 101.986 138.149 102.081 136.013C102.188 132.781 103.065 129.222 101.264 126.295C101.058 124.008 100.559 121.455 97.9891 120.789C99.5364 118.95 99.0894 116.414 98.7412 114.239C97.2427 111.174 96.3995 107.831 96.2655 104.422C96.2312 102.57 97.5893 100.962 97.3143 99.0795C97.0951 96.5264 96.6008 93.8315 97.7699 91.4203C99.0937 88.5277 99.1968 85.2697 100.061 82.2009Z" fill="#018AEC"/>
<path d="M108.128 82.8711C109.091 83.5717 110.148 84.1347 111.137 84.7666L112.117 85.6004C110.901 89.834 110.522 94.4674 112.547 98.5333C111.767 98.5682 110.985 98.5032 110.221 98.3399C110.651 98.9202 111.081 99.5133 111.511 100.111C111.224 101.34 110.938 102.574 110.651 103.811C111.946 104.647 113.082 105.705 114.008 106.936L113.479 108.226C114.15 109.829 114.967 111.501 116.673 112.21C114.661 113.602 117.064 115.141 117.962 116.349C117.533 116.701 117.103 117.054 116.673 117.411C117.374 119.1 116.982 120.914 116.449 122.594L117.842 122.998C117.106 123.462 116.355 123.892 115.59 124.288C114.855 122.925 114.33 121.279 115.59 120.063L114.812 119.031C115.861 115.06 113.114 111.557 111.971 107.946C111.541 106.502 110.484 105.44 109.65 104.25C109.396 101.435 109.749 98.4173 108.227 95.89C108.62 94.9763 109.133 94.1192 109.753 93.3413L108.416 93.5991C108.672 91.9227 108.479 90.2084 107.858 88.6305C109.078 87.6205 108.554 86.5761 107.492 85.7121C108.145 85.3224 108.799 84.927 109.452 84.5259L107.939 84.0273C107.982 83.6362 108.064 83.2536 108.128 82.8711Z" fill="#1A9BF2"/>
<path d="M176.975 96.0316C178.35 94.3124 179.807 92.6318 181.299 90.9985C182.885 92.1461 184.213 93.5774 185.717 94.8324C184.527 96.8998 182.489 98.3784 181.544 100.592C181.496 102.01 183.065 102.698 184.123 103.3C187.153 104.641 190.458 105.93 193.832 105.483C194.717 105.44 195.268 104.688 195.874 104.142C199.312 107.308 202.765 110.467 206.232 113.619C202.536 118.554 198.109 122.912 194.339 127.803C193.05 128.375 191.649 128.233 190.295 128.254C184.479 128.173 178.664 128.34 172.853 128.203C173.309 126.505 171.791 125.383 170.33 125.057C169.997 123.856 169.547 122.69 168.989 121.575C169.849 121.807 170.708 122.031 171.568 122.25C171.533 121.253 171.323 120.26 171.383 119.263C171.873 118.706 172.328 118.118 172.746 117.505L171.533 116.396L172.531 115.721L171.757 115.025C172.221 113.874 172.425 112.636 172.354 111.397L170.429 110.366L171.843 110.331C172.019 109.124 171.946 107.804 172.66 106.747C172.599 106.497 172.544 106.252 172.488 106.007C172.952 105.964 173.401 105.814 173.799 105.569C174.196 105.325 174.533 104.992 174.782 104.598C175.031 104.203 175.186 103.756 175.236 103.292C175.285 102.828 175.227 102.358 175.067 101.92L177.125 102.083C176.713 101.009 176.283 99.9414 175.836 98.8812C176.498 98.1549 177.168 97.4328 177.839 96.7322L176.975 96.0316Z" fill="#FF6F35"/>
<path d="M175.737 97.42L176.975 96.0317L177.834 96.7108C177.164 97.4286 176.493 98.1507 175.832 98.8599C176.279 99.9201 176.708 100.987 177.121 102.062L175.062 101.899C175.223 102.337 175.281 102.806 175.231 103.271C175.182 103.735 175.027 104.181 174.778 104.576C174.528 104.971 174.192 105.304 173.794 105.548C173.397 105.792 172.948 105.942 172.483 105.986C172.539 106.231 172.595 106.476 172.655 106.725C171.942 107.783 172.015 109.102 171.839 110.31L170.425 110.344L172.35 111.376C172.42 112.614 172.216 113.853 171.753 115.004L172.526 115.7L171.529 116.375L172.741 117.484C172.324 118.097 171.869 118.684 171.379 119.241C171.319 120.239 171.529 121.231 171.564 122.229C170.704 122.009 169.844 121.799 168.985 121.554C169.543 122.668 169.992 123.834 170.326 125.035C171.787 125.362 173.304 126.484 172.849 128.181L172.419 128.745C170.399 126.914 168.435 125.018 166.359 123.252C164.025 121.042 161.631 118.88 159.292 116.693C161.871 112.897 165.31 109.777 168.022 106.076C168.483 105.606 168.939 105.134 169.389 104.658C171.594 102.316 173.584 99.8012 175.737 97.42Z" fill="#FF6F35"/>
<path d="M110.234 98.3398C110.998 98.5031 111.779 98.5681 112.559 98.5333C113.758 100.764 115.697 102.44 117.15 104.486C118.764 107.112 119.973 109.967 120.734 112.953C121.379 120.26 122.002 127.588 122.312 134.925C122.939 139.451 122.355 144.033 122.956 148.554C122.883 149.135 122.789 149.719 122.741 150.308C122.501 164.281 122.238 178.246 121.697 192.227C121.615 192.047 121.443 191.686 121.362 191.505C120.992 190.362 119.892 190.005 118.89 189.631C117.768 187.779 118.637 185.626 119.32 183.79C119.747 181.752 119.796 179.653 119.466 177.597C120.184 177.038 120.936 176.526 121.667 175.989C120.76 176.337 119.857 176.419 119.286 175.486L120.962 173.337L119.608 172.422C119.913 171.089 119.002 170.105 118.155 169.228C118.314 168.721 118.478 168.223 118.641 167.724C117.816 166.435 118.078 164.995 119.501 164.307L118.362 163.121C118.856 162.222 119.483 161.333 120.575 161.161C120.717 160.37 120.85 159.583 121.005 158.797C119.78 158.969 118.426 159.059 117.618 157.963C118.246 157.797 118.873 157.633 119.501 157.473C119.263 156.742 118.86 156.076 118.323 155.526C118.387 155.015 118.465 154.507 118.542 154L118.972 153.725C118.779 153.016 118.594 152.311 118.409 151.606L119.698 151.529C119.311 149.938 118.598 148.391 118.701 146.719C119.509 147.317 120.42 147.742 121.448 147.489C120.799 146.917 120.128 146.362 119.462 145.812C119.724 145.073 120.322 144.278 119.797 143.504C118.688 141.39 118.19 138.557 119.746 136.528L118.392 136.374C118.843 135.987 119.303 135.604 119.763 135.226C119.144 134.934 118.529 134.642 117.91 134.366C118.469 132.888 118.915 131.369 119.243 129.823L117.64 129.449C117.24 128.349 117.64 127.262 118.091 126.256C117.381 125.548 116.584 124.934 115.718 124.429L115.654 124.27C116.419 123.866 117.17 123.436 117.906 122.981L116.513 122.577C117.046 120.896 117.437 119.082 116.737 117.393C117.167 117.037 117.597 116.684 118.026 116.332C117.124 115.124 114.721 113.585 116.737 112.193C115.018 111.483 114.214 109.811 113.543 108.208L114.072 106.919C113.146 105.687 112.01 104.629 110.715 103.794C111.002 102.556 111.288 101.323 111.575 100.093C111.111 99.5003 110.681 98.9201 110.234 98.3398Z" fill="#2BA8F9"/>
<path d="M120.734 112.954C121.693 116.698 123.799 120.162 127.04 122.354C126.881 122.535 126.567 122.904 126.408 123.089C126.831 124.379 127.348 125.636 127.955 126.85L128.699 127.103C128.892 126.674 129.086 126.291 129.283 125.891C130.186 126.235 131.071 126.631 131.948 127.056C132.146 126.459 132.348 125.87 132.554 125.277C133.311 126.265 134.488 127.297 134.209 128.685C134.14 130.198 132.821 131.101 132.034 132.244C131.892 133.469 132.034 134.741 131.338 135.85C132.932 138.313 130.929 141.575 132.975 143.78C133.534 144.352 132.975 145.138 132.902 145.8L134.063 146.638C131.248 149.509 128.535 152.501 125.553 155.196C124.654 152.995 123.975 150.709 122.974 148.555C122.372 144.034 122.974 139.452 122.329 134.926C122.002 127.589 121.379 120.269 120.734 112.954Z" fill="#0F5CEB"/>
<path d="M130.508 124.029C132.284 122.766 133.319 120.737 134.746 119.117C136.006 121.782 137.411 124.382 138.52 127.12C138.039 128.298 137.693 129.526 137.489 130.782C136.126 131.255 135.426 132.449 135.219 133.82L136.663 134.031C135.971 135.703 134.407 137.293 134.88 139.223C135.314 141.083 135.601 142.974 135.739 144.879C135.168 145.451 134.617 146.053 134.059 146.637L132.898 145.799C132.98 145.137 133.53 144.351 132.971 143.779C130.925 141.574 132.928 138.312 131.334 135.849C132.009 134.74 131.888 133.468 132.03 132.243C132.817 131.1 134.136 130.197 134.205 128.684C134.484 127.296 133.307 126.264 132.55 125.276C132.344 125.869 132.142 126.458 131.944 127.055C131.084 126.625 130.182 126.234 129.279 125.89C129.082 126.29 128.888 126.694 128.695 127.103L127.951 126.849C127.344 125.635 126.827 124.378 126.404 123.088C126.563 122.903 126.877 122.534 127.036 122.353C128.106 123.076 129.276 123.641 130.508 124.029Z" fill="#1A74EA"/>
<path d="M27.5218 123.479C29.3657 122.336 31.9746 123.776 32.0391 125.925C32.5291 128.255 29.7009 130.335 27.6379 129.101C25.4329 128.04 25.3814 124.631 27.5218 123.479Z" fill="#00CF8A"/>
<path d="M115.719 124.43C116.6 124.929 117.414 125.54 118.139 126.248C117.709 127.254 117.279 128.341 117.687 129.441L119.29 129.815C118.962 131.361 118.517 132.88 117.958 134.358C118.577 134.642 119.192 134.934 119.81 135.218C119.351 135.596 118.891 135.979 118.439 136.365L119.793 136.52C118.237 138.549 118.736 141.381 119.845 143.496C120.356 144.27 119.772 145.065 119.51 145.804C120.176 146.354 120.846 146.909 121.495 147.48C120.472 147.734 119.557 147.308 118.749 146.711C118.646 148.383 119.359 149.93 119.746 151.521L118.457 151.598C118.641 152.303 118.826 153.008 119.02 153.717L118.59 153.992C118.512 154.499 118.435 155.006 118.371 155.518C118.908 156.068 119.31 156.734 119.548 157.465C118.921 157.622 118.293 157.786 117.666 157.955C118.491 159.051 119.815 158.961 121.053 158.789C120.915 159.575 120.782 160.362 120.623 161.153C119.531 161.325 118.904 162.214 118.409 163.113L119.548 164.299C118.121 164.987 117.859 166.426 118.689 167.716C118.525 168.214 118.362 168.713 118.203 169.22C119.063 170.08 119.961 171.081 119.656 172.414L121.01 173.329L119.333 175.478C119.905 176.394 120.808 176.338 121.715 175.981C120.984 176.518 120.232 177.03 119.514 177.589C119.844 179.645 119.794 181.744 119.368 183.782C118.676 185.617 117.808 187.771 118.938 189.623C119.939 189.997 121.04 190.354 121.409 191.497C120.98 191.897 120.524 192.301 120.086 192.709C118.899 191.489 117.563 190.38 116.626 188.948C116.761 188.038 116.782 187.114 116.69 186.198C117.373 184.478 117.7 182.377 116.213 180.984C117.881 179.174 116.991 176.484 117.502 174.275L118.469 174.18L117.812 172.461L118.775 172.233C116.957 170.187 117.296 167.295 116.445 164.845C118.388 162.597 117.924 158.784 116.183 156.511C116.381 156.046 116.583 155.587 116.785 155.127C116.63 154.594 116.484 154.065 116.355 153.536C116.882 152.78 117.404 152.021 117.919 151.258C117.49 150.571 117.06 149.883 116.608 149.195C118.164 146.419 117.64 143.118 117.038 140.169C117.361 139.739 117.683 139.31 118.014 138.88C117.498 138.287 116.987 137.694 116.479 137.1C117.863 134.595 116.308 131.977 116.909 129.42C116.233 128.348 115.613 127.242 115.052 126.106L115.693 125.741C115.667 125.289 115.684 124.859 115.719 124.43Z" fill="#1498F2"/>
<path d="M138.52 127.12C139.487 129.463 140.239 131.882 141.009 134.302C140.579 134.302 140.123 134.332 139.685 134.354C137.295 136.606 137.209 140.509 138.64 143.328C138.09 143.535 137.54 143.737 136.999 143.969C136.545 144.22 136.123 144.526 135.744 144.88C135.606 142.975 135.318 141.084 134.884 139.224C134.411 137.294 135.976 135.703 136.668 134.031L135.223 133.821C135.43 132.45 136.13 131.242 137.493 130.782C137.696 129.527 138.041 128.298 138.52 127.12Z" fill="#2A8CF2"/>
<path d="M190.291 128.251C191.645 128.251 193.067 128.371 194.335 127.799C196.815 128.388 199.373 128.066 201.896 128.135C210.646 128.186 219.402 128.031 228.153 128.182C227.774 130.284 225.948 131.693 224.903 133.473C223.261 135.459 222.217 137.9 220.369 139.705C220.476 138.759 221.301 137.014 219.801 136.864C204.105 135.42 188.425 133.628 172.742 132.213C170.859 131.818 169.617 133.542 168.254 134.509C169.475 132.467 171.022 130.666 172.432 128.762L172.862 128.199C178.66 128.337 184.488 128.169 190.291 128.251Z" fill="#EEEEEE"/>
<path d="M143.785 142.868C144.396 143.44 145.109 143.981 146.003 143.908C151.141 143.937 156.278 143.92 161.416 143.857C165.387 144.256 169.385 143.818 173.36 144.11C174.395 144.351 175.46 144.437 176.519 144.364C181.81 143.827 187.136 144.287 192.422 144.209C200.709 144.287 208.992 144.067 217.278 143.986C217.39 158.169 217.317 172.353 217.334 186.537C212.176 186.051 207.079 185.273 201.93 184.908C204.294 194.428 206.881 203.897 209.331 213.4C185.498 213.047 161.648 213.4 137.815 213.241C137.24 213.229 136.691 212.999 136.281 212.596C137.862 211.956 139.577 211.908 141.258 211.87C139.973 209.93 138.284 208.291 136.307 207.064C137.596 204.615 136.646 201.67 136.921 199.01C137.196 193.461 136.208 187.895 136.921 182.368C137.669 184.968 137.377 187.71 137.983 190.341C144.812 190.594 151.655 190.164 158.48 190.581C159.261 190.529 160.035 190.405 160.793 190.212C161.923 186.068 161.223 181.74 161.867 177.528C161.773 169.598 162.46 161.625 161.609 153.712C161.442 150.575 161.79 147.424 161.377 144.295C156.039 148.318 152.119 153.97 147.095 158.384C143.772 159.098 140.269 158.414 136.878 158.737C133.612 158.836 130.336 158.711 127.07 158.814C125.682 158.788 124.298 158.659 122.918 158.552C122.944 155.805 123.06 153.05 122.733 150.317C122.78 149.728 122.875 149.143 122.948 148.563C123.967 150.712 124.667 153.003 125.527 155.204C128.51 152.509 131.222 149.517 134.037 146.646C134.596 146.062 135.146 145.46 135.718 144.888C136.097 144.535 136.519 144.229 136.973 143.977C139.272 143.732 141.585 143.887 143.888 143.852C143.884 143.599 143.82 143.113 143.785 142.868Z" fill="#EEEEEE"/>
<path d="M204.629 187.182C208.884 187.646 213.143 188.068 217.381 188.669C217.553 194.949 216.995 201.28 217.695 207.525L217.725 207.697C215.877 209.816 214.068 211.974 212.245 214.118C211.884 214.664 211.411 213.985 211.437 213.577C209.241 204.761 206.765 196.01 204.629 187.182Z" fill="#EEEEEE"/>
<path d="M168.254 134.509C169.617 133.542 170.859 131.819 172.741 132.214C188.438 133.628 204.118 135.421 219.801 136.865C221.301 137.015 220.476 138.76 220.369 139.706C219.421 141.192 218.395 142.626 217.295 144.004C209.009 144.086 200.726 144.305 192.44 144.227C187.136 144.305 181.81 143.845 176.537 144.382C175.477 144.455 174.412 144.369 173.378 144.128C175.569 143.813 177.778 143.631 179.992 143.583C189.448 143.551 198.904 143.522 208.36 143.497C211.433 143.467 214.601 143.656 217.558 142.659C215.709 141.202 213.096 142.057 210.943 141.369C198.315 140.114 185.687 138.7 173.029 137.699C170.562 137.325 167.829 136.598 165.637 138.253C166.462 136.981 167.296 135.709 168.254 134.509Z" fill="#E5E6E6"/>
<path d="M139.685 134.354C140.115 134.354 140.544 134.315 141.009 134.302C141.959 137.148 142.926 139.993 143.785 142.868C143.82 143.113 143.884 143.599 143.914 143.844C141.61 143.878 139.298 143.724 136.999 143.969C137.54 143.737 138.09 143.539 138.64 143.328C137.209 140.509 137.295 136.606 139.685 134.354Z" fill="#38A5FA"/>
<path d="M250.197 136.464C252.776 135.768 255.531 138.261 255.011 140.913C254.775 144.038 250.391 145.499 248.396 143.036C246.29 141.033 247.494 137.217 250.197 136.464Z" fill="#FFC647"/>
<path d="M165.62 138.252C167.812 136.597 170.545 137.324 173.012 137.698C185.67 138.699 198.298 140.113 210.926 141.368C213.075 142.039 215.692 141.184 217.541 142.658C214.583 143.655 211.416 143.466 208.343 143.496C198.887 143.53 189.431 143.559 179.975 143.582C177.761 143.63 175.552 143.813 173.36 144.128C169.385 143.835 165.387 144.274 161.416 143.874C162.766 141.953 164.257 140.152 165.62 138.252Z" fill="#DDDEDF"/>
<path d="M147.095 158.385C152.11 153.979 156.03 148.327 161.39 144.295C161.82 147.424 161.454 150.575 161.622 153.713C161.472 155.432 161.351 157.151 161.313 158.87C160.84 161.569 160.909 164.329 160.401 167.037C156.619 167.57 152.811 166.805 149.02 167.209C145.444 167.557 141.915 166.525 138.348 166.843C137.712 168.524 137.42 170.282 136.848 172.001C136.749 167.587 136.779 163.164 136.878 158.746C140.278 158.406 143.781 159.089 147.095 158.385Z" fill="#D9DADC"/>
<path d="M161.631 153.705C162.49 161.596 161.794 169.608 161.889 177.52C161.24 181.732 161.945 186.061 160.814 190.204C160.056 190.397 159.282 190.521 158.502 190.574C151.676 190.144 144.834 190.574 138.004 190.333C137.398 187.703 137.69 184.96 136.943 182.36C136.857 180.718 136.904 179.072 136.943 177.43C138.387 179.377 140.918 178.758 143.003 178.793C148.853 178.977 154.702 178.793 160.556 178.719C161.387 172.138 161.64 165.497 161.313 158.871C161.36 157.147 161.48 155.424 161.631 153.705Z" fill="#E7E7E8"/>
<path d="M127.078 158.815C130.345 158.712 133.62 158.815 136.887 158.737C136.788 163.156 136.758 167.578 136.857 171.993C136.835 172.126 136.788 172.388 136.766 172.517C135.632 169.508 134.084 166.551 131.609 164.411C129.755 162.852 128.217 160.953 127.078 158.815Z" fill="#216CF6"/>
<path d="M85.5888 159.193C86.5688 158.29 88.2666 158.763 88.8726 159.876C89.8526 161.385 88.5889 163.787 86.6892 163.521C84.6089 163.418 83.8696 160.284 85.5888 159.193Z" fill="#0164FF"/>
<path d="M160.419 167.024C160.926 164.329 160.849 161.57 161.33 158.858C161.657 165.484 161.404 172.125 160.573 178.707C154.719 178.792 148.87 178.964 143.02 178.78C140.935 178.745 138.404 179.364 136.96 177.417C137.003 175.771 136.844 174.133 136.775 172.496C136.775 172.367 136.844 172.105 136.865 171.971C137.437 170.274 137.725 168.499 138.365 166.814C141.933 166.496 145.461 167.527 149.037 167.179C152.82 166.792 156.628 167.557 160.419 167.024Z" fill="#E0E1E2"/>
<path d="M21.0876 181.126C21.8076 180.952 22.5611 180.975 23.2691 181.193C23.977 181.41 24.6132 181.815 25.1107 182.364C26.5677 184.143 26.1379 187.225 24.0877 188.381C23.2537 188.892 22.2534 189.059 21.2988 188.845C20.3441 188.632 19.51 188.055 18.973 187.238C17.4644 185.14 18.6119 181.831 21.0876 181.126Z" fill="#FFB3DC"/>
<path d="M201.947 184.9C207.105 185.266 212.211 186.044 217.352 186.529C223.67 187.325 230.014 187.905 236.328 188.726C235.73 189.69 235.05 190.6 234.295 191.446C226.403 200.472 218.822 209.761 210.849 218.696C210.252 216.96 209.752 215.192 209.349 213.401C206.899 203.889 204.311 194.421 201.947 184.9ZM204.629 187.183C206.778 196.011 209.241 204.762 211.437 213.577C211.412 213.986 211.867 214.665 212.245 214.119C214.068 211.97 215.877 209.821 217.726 207.697L217.695 207.526C222.759 201.968 227.581 196.179 232.408 190.385C227.413 189.688 222.399 189.115 217.365 188.666C213.144 188.068 208.884 187.647 204.629 187.183Z" fill="#FF7036"/>
<path d="M65.1258 185.058C73.9412 185.724 82.7179 186.979 91.5204 187.903C90.5706 196.96 89.7539 206.05 88.5419 215.072C79.8167 214.027 71.0787 213.06 62.3235 212.097C63.11 203.084 64.2619 194.058 65.1258 185.058ZM66.3551 187.448C65.7577 195.236 64.5112 202.977 64.0556 210.774C71.7922 211.521 79.5288 212.493 87.2395 213.352C88.3656 205.405 88.8943 197.381 89.943 189.425C82.7609 188.247 75.4327 187.775 68.199 186.812C67.5801 186.812 66.2906 186.408 66.3551 187.448Z" fill="#448EFC"/>
<path d="M244.176 187.612C250.03 186.099 256.588 188.932 259.692 194.085C263.702 200.231 262.43 209.201 256.752 213.895C251.517 218.623 242.744 218.438 237.741 213.465C233.035 209.304 231.685 202.105 234.071 196.38C235.824 192.091 239.637 188.652 244.176 187.612ZM245.035 189.404C237.952 190.797 233.203 198.693 235.205 205.617C236.65 211.806 243.114 216.388 249.454 215.189C256.567 214.148 261.544 206.39 259.803 199.466C258.613 192.877 251.693 187.96 245.057 189.404H245.035Z" fill="#448EFC"/>
<path d="M109.216 196.702C113.316 196.732 117.451 196.384 121.53 196.917C125.235 201.761 131.106 204.224 136.324 207.056C138.301 208.283 139.99 209.922 141.275 211.862C139.595 211.9 137.88 211.948 136.298 212.588C126.662 212.812 116.982 212.622 107.329 212.717C106.743 212.771 106.153 212.69 105.604 212.482C105.054 212.273 104.559 211.942 104.157 211.514C105.794 206.562 107.574 201.658 109.216 196.702Z" fill="#A1C3FC"/>
</svg>
