<svg width="47" height="23" viewBox="0 0 47 23" fill="none" xmlns="http://www.w3.org/2000/svg">
<path d="M32.24 2.92099L13.295 21.9522C13.1232 22.1258 12.9186 22.2635 12.6932 22.3576C12.4678 22.4516 12.226 22.5 11.9818 22.5C11.7376 22.5 11.4958 22.4516 11.2704 22.3576C11.045 22.2635 10.8404 22.1258 10.6686 21.9522L1.23582 12.4534C1.06173 12.277 0.964111 12.0391 0.964111 11.7913C0.964111 11.5435 1.06173 11.3056 1.23582 11.1293L2.54988 9.80683C2.63593 9.72013 2.73828 9.65131 2.85105 9.60436C2.96381 9.5574 3.08475 9.53322 3.20691 9.53322C3.32906 9.53322 3.45 9.5574 3.56277 9.60436C3.67553 9.65131 3.77789 9.72013 3.86394 9.80683L11.349 17.3438C11.4351 17.4305 11.5374 17.4993 11.6502 17.5463C11.763 17.5933 11.8839 17.6174 12.0061 17.6174C12.1282 17.6174 12.2492 17.5933 12.3619 17.5463C12.4747 17.4993 12.5771 17.4305 12.6631 17.3438L29.6144 0.275302C29.7001 0.188121 29.8023 0.118877 29.9151 0.0716099C30.0278 0.0243431 30.1488 0 30.2711 0C30.3933 0 30.5143 0.0243431 30.6271 0.0716099C30.7398 0.118877 30.842 0.188121 30.9277 0.275302L32.2417 1.59773C32.4164 1.77379 32.5145 2.01176 32.5145 2.25978C32.5145 2.5078 32.4164 2.74577 32.2417 2.92183L32.24 2.92099ZM46.6286 1.59773L45.3338 0.274464C45.2497 0.187827 45.149 0.118951 45.0378 0.0719177C44.9266 0.0248841 44.8071 0.000650059 44.6864 0.000650059C44.5656 0.000650059 44.4461 0.0248841 44.3349 0.0719177C44.2237 0.118951 44.1231 0.187827 44.039 0.274464L27.3362 17.343C27.2521 17.4297 27.1515 17.4987 27.0403 17.5458C26.9291 17.5929 26.8096 17.6172 26.6888 17.6172C26.568 17.6172 26.4485 17.5929 26.3372 17.5458C26.226 17.4987 26.1254 17.4297 26.0414 17.343L24.7022 15.9745C24.6181 15.8879 24.5175 15.819 24.4063 15.772C24.2951 15.7249 24.1756 15.7007 24.0548 15.7007C23.9341 15.7007 23.8146 15.7249 23.7033 15.772C23.5921 15.819 23.4915 15.8879 23.4074 15.9745L22.1109 17.2953C21.9386 17.4726 21.8422 17.7101 21.8422 17.9573C21.8422 18.2046 21.9386 18.4421 22.1109 18.6194L25.3751 21.9514C25.5431 22.1247 25.7442 22.2625 25.9665 22.3567C26.1888 22.4508 26.4277 22.4993 26.6691 22.4993C26.9105 22.4993 27.1494 22.4508 27.3717 22.3567C27.594 22.2625 27.7951 22.1247 27.9631 21.9514L46.6235 2.92099C46.7956 2.74372 46.8918 2.5064 46.8918 2.25936C46.8918 2.01232 46.7956 1.775 46.6235 1.59773H46.6286Z" fill="#898989"/>
</svg>
