<svg width="47" height="23" viewBox="0 0 47 23" fill="none" xmlns="http://www.w3.org/2000/svg">
<path d="M32.2396 2.92099L13.2945 21.9522C13.1227 22.1258 12.9182 22.2635 12.6928 22.3576C12.4673 22.4516 12.2255 22.5 11.9813 22.5C11.7371 22.5 11.4953 22.4516 11.2699 22.3576C11.0445 22.2635 10.8399 22.1258 10.6681 21.9522L1.23533 12.4534C1.06124 12.277 0.963623 12.0391 0.963623 11.7913C0.963623 11.5435 1.06124 11.3056 1.23533 11.1293L2.54939 9.80683C2.63544 9.72013 2.73779 9.65131 2.85056 9.60436C2.96332 9.5574 3.08427 9.53322 3.20642 9.53322C3.32857 9.53322 3.44951 9.5574 3.56228 9.60436C3.67504 9.65131 3.7774 9.72013 3.86345 9.80683L11.3486 17.3438C11.4346 17.4305 11.537 17.4993 11.6497 17.5463C11.7625 17.5933 11.8834 17.6174 12.0056 17.6174C12.1277 17.6174 12.2487 17.5933 12.3614 17.5463C12.4742 17.4993 12.5766 17.4305 12.6626 17.3438L29.614 0.275302C29.6996 0.188121 29.8018 0.118877 29.9146 0.0716099C30.0273 0.0243431 30.1483 0 30.2706 0C30.3928 0 30.5138 0.0243431 30.6266 0.0716099C30.7393 0.118877 30.8415 0.188121 30.9272 0.275302L32.2412 1.59773C32.4159 1.77379 32.514 2.01176 32.514 2.25978C32.514 2.5078 32.4159 2.74577 32.2412 2.92183L32.2396 2.92099ZM46.6281 1.59773L45.3333 0.274464C45.2492 0.187827 45.1485 0.118951 45.0373 0.0719177C44.9261 0.0248841 44.8066 0.000650059 44.6859 0.000650059C44.5651 0.000650059 44.4456 0.0248841 44.3344 0.0719177C44.2232 0.118951 44.1226 0.187827 44.0385 0.274464L27.3357 17.343C27.2517 17.4297 27.151 17.4987 27.0398 17.5458C26.9286 17.5929 26.8091 17.6172 26.6883 17.6172C26.5675 17.6172 26.448 17.5929 26.3368 17.5458C26.2255 17.4987 26.1249 17.4297 26.0409 17.343L24.7017 15.9745C24.6176 15.8879 24.517 15.819 24.4058 15.772C24.2946 15.7249 24.1751 15.7007 24.0543 15.7007C23.9336 15.7007 23.8141 15.7249 23.7029 15.772C23.5917 15.819 23.491 15.8879 23.4069 15.9745L22.1104 17.2953C21.9381 17.4726 21.8417 17.7101 21.8417 17.9573C21.8417 18.2046 21.9381 18.4421 22.1104 18.6194L25.3747 21.9514C25.5427 22.1247 25.7438 22.2625 25.966 22.3567C26.1883 22.4508 26.4272 22.4993 26.6686 22.4993C26.91 22.4993 27.1489 22.4508 27.3712 22.3567C27.5935 22.2625 27.7946 22.1247 27.9626 21.9514L46.6231 2.92099C46.7951 2.74372 46.8913 2.5064 46.8913 2.25936C46.8913 2.01232 46.7951 1.775 46.6231 1.59773H46.6281Z" fill="#2B56AA"/>
</svg>
