<svg width="34" height="23" viewBox="0 0 34 23" fill="none" xmlns="http://www.w3.org/2000/svg">
<path d="M32.9334 2.9866L13.5684 22.4397C13.3928 22.6172 13.1837 22.7581 12.9533 22.8543C12.7229 22.9504 12.4757 23 12.226 23C11.9764 23 11.7292 22.9504 11.4988 22.8543C11.2684 22.7581 11.0593 22.6172 10.8837 22.4397L1.24187 12.732C1.06377 12.5519 0.963867 12.3089 0.963867 12.0557C0.963867 11.8024 1.06377 11.5594 1.24187 11.3794L2.58506 10.0276C2.67266 9.93839 2.77717 9.8675 2.89248 9.8191C3.00779 9.77071 3.13159 9.74579 3.25665 9.74579C3.3817 9.74579 3.5055 9.77071 3.62082 9.8191C3.73613 9.8675 3.84064 9.93839 3.92824 10.0276L11.5793 17.7274C11.6669 17.8167 11.7714 17.8875 11.8867 17.9359C12.002 17.9843 12.1258 18.0093 12.2509 18.0093C12.3759 18.0093 12.4997 17.9843 12.615 17.9359C12.7303 17.8875 12.8349 17.8167 12.9225 17.7274L30.2495 0.281406C30.3371 0.192292 30.4416 0.121513 30.5568 0.0731986C30.6721 0.024884 30.7958 0 30.9207 0C31.0457 0 31.1694 0.024884 31.2846 0.0731986C31.3998 0.121513 31.5043 0.192292 31.5919 0.281406L32.9351 1.634C33.1136 1.81396 33.2138 2.05721 33.2138 2.31073C33.2138 2.56425 33.1136 2.8075 32.9351 2.98745L32.9334 2.9866Z" fill="white"/>
</svg>
